<?xml version="1.0" encoding="UTF-8" standalone="no"?>
<!-- Created with Inkscape (http://www.inkscape.org/) -->

<svg
   xmlns:dc="http://purl.org/dc/elements/1.1/"
   xmlns:cc="http://creativecommons.org/ns#"
   xmlns:rdf="http://www.w3.org/1999/02/22-rdf-syntax-ns#"
   xmlns:svg="http://www.w3.org/2000/svg"
   xmlns="http://www.w3.org/2000/svg"
   xmlns:xlink="http://www.w3.org/1999/xlink"
   xmlns:sodipodi="http://sodipodi.sourceforge.net/DTD/sodipodi-0.dtd"
   xmlns:inkscape="http://www.inkscape.org/namespaces/inkscape"
   width="210mm"
   height="297mm"
   viewBox="0 0 210 297"
   version="1.1"
   id="svg918"
   inkscape:version="0.92.5 (2060ec1f9f, 2020-04-08)"
   sodipodi:docname="logo2.svg">
  <defs
     id="defs912">
    <linearGradient
       gradientTransform="translate(-17.428898,21.508945)"
       inkscape:collect="always"
       xlink:href="#linearGradient918"
       id="linearGradient920-3"
       x1="112.24114"
       y1="135.44995"
       x2="28.853052"
       y2="50.85421"
       gradientUnits="userSpaceOnUse" />
    <linearGradient
       inkscape:collect="always"
       id="linearGradient918">
      <stop
         style="stop-color:#008b8b;stop-opacity:1;"
         offset="0"
         id="stop914" />
      <stop
         style="stop-color:#008b8b;stop-opacity:0;"
         offset="1"
         id="stop916" />
    </linearGradient>
  </defs>
  <sodipodi:namedview
     id="base"
     pagecolor="#ffffff"
     bordercolor="#666666"
     borderopacity="1.0"
     inkscape:pageopacity="0.0"
     inkscape:pageshadow="2"
     inkscape:zoom="0.35"
     inkscape:cx="-211.42857"
     inkscape:cy="560"
     inkscape:document-units="mm"
     inkscape:current-layer="layer1"
     showgrid="false"
     inkscape:window-width="1920"
     inkscape:window-height="1009"
     inkscape:window-x="0"
     inkscape:window-y="0"
     inkscape:window-maximized="1" />
  <metadata
     id="metadata915">
    <rdf:RDF>
      <cc:Work
         rdf:about="">
        <dc:format>image/svg+xml</dc:format>
        <dc:type
           rdf:resource="http://purl.org/dc/dcmitype/StillImage" />
        <dc:title></dc:title>
      </cc:Work>
    </rdf:RDF>
  </metadata>
  <g
     inkscape:label="Camada 1"
     inkscape:groupmode="layer"
     id="layer1">
    <path
       inkscape:connector-curvature="0"
       style="fill:url(#linearGradient920-3);fill-opacity:1;stroke:none;stroke-width:0.26458332px;stroke-linecap:butt;stroke-linejoin:miter;stroke-opacity:1"
       d="M 11.424002,72.362968 V 204.13682 l 63.946964,-31.98978 c -8.501354,-1.09277 -15.197101,-4.16892 -20.083518,-9.23303 -5.718857,-5.92556 -8.578284,-13.60813 -8.578284,-23.04769 0,-9.43956 3.083357,-17.1049 9.250084,-22.99601 6.166717,-5.92557 14.073201,-9.31898 23.719469,-10.18026 0.14763,-0.0204 0.278887,-0.0338 0.415986,-0.0496 z m 86.138881,42.997362 c -0.41897,2.01994 -1.71006,3.40317 -3.879866,4.14548 -1.24023,0.62012 -2.94555,0.43063 -5.115967,-0.56844 -1.8948,-0.89573 -4.099656,-1.32636 -6.614577,-1.29192 -5.408797,0 -9.990764,2.13596 -13.745921,6.40788 -3.75515,4.40973 -5.649957,9.62904 -5.684407,15.65796 0,6.02892 1.877577,11.17934 5.632727,15.45126 3.789607,4.27191 8.388804,6.40787 13.797601,6.40787 2.514921,0 4.737007,-0.41341 6.666257,-1.24023 1.929247,-0.82682 3.582897,-1.03353 4.960937,-0.62012 h 0.15503 c 1.263186,0.39099 2.247026,0.98266 2.952266,1.77405 l 7.744747,-3.87469 v -38.82037 z m 21.714947,10.83912 0.0367,4.31344 c 1.13792,-1.00584 2.25701,-1.87628 3.35897,-2.61845 z m 10.40247,8.40053 c -1.79253,0.04 -3.62846,0.6413 -5.50819,1.80402 -3.3762,2.03261 -5.04707,4.34082 -5.01262,6.92464 v 6.91327 l 18.66606,-9.33741 c -0.69459,-2.59223 -2.03889,-4.38888 -4.04163,-5.379 -1.34143,-0.64811 -2.70944,-0.95661 -4.10362,-0.92552 z"
       id="path844-5"
       inkscape:export-xdpi="96"
       inkscape:export-ydpi="96" />
    <path
       style="font-style:normal;font-weight:normal;font-size:10.58333302px;line-height:1.25;font-family:sans-serif;letter-spacing:0px;word-spacing:0px;fill:#000000;fill-opacity:1;stroke:none;stroke-width:0.26458332"
       d="m 111.76977,105.0364 c -1.99816,0 -3.75516,0.68902 -5.271,2.06706 -1.37804,1.48139 -2.06706,3.22116 -2.06706,5.21932 v 6.46627 l 14.84612,7.4104 -0.11834,-13.98002 c 0,-2.03261 -0.68901,-3.73793 -2.06705,-5.11597 -1.48139,-1.37804 -3.22117,-2.06706 -5.21932,-2.06706 z m -30.250347,1.51826 c -0.38382,-0.0104 -0.86596,0.0212 -1.42471,0.0858 l 17.46817,8.71988 c 0.0866,-0.41749 0.13909,-0.86015 0.1509,-1.33222 0,-2.89388 -1.32636,-4.71978 -3.979086,-5.4777 -2.99723,-0.99908 -5.581047,-1.58475 -7.751457,-1.757 -2.170407,-0.20671 -3.513997,-0.27561 -4.030767,-0.20671 -0.12919,-0.0172 -0.27371,-0.0277 -0.43305,-0.032 z m 144.817037,7.57679 c -1.8948,0 -3.35896,0.41342 -4.39249,1.24024 -1.89481,1.41249 -2.84221,3.32452 -2.84221,5.73609 v 5.27099 h -1.86035 c -1.41249,0 -2.58382,0.48232 -3.514,1.44694 -0.93017,0.96463 -1.39526,2.11874 -1.39526,3.46232 v 0.10336 c -0.0344,1.44694 0.43064,2.60104 1.39526,3.46232 0.93018,0.89572 2.10151,1.34358 3.514,1.34358 h 1.86035 v 12.66073 c 0,6.47678 1.06798,11.81668 3.20394,16.01969 2.51492,4.89204 5.83945,7.33805 9.97356,7.33805 2.54937,1e-5 4.40972,-1.75699 5.58106,-5.27099 1.17133,-3.41065 0.63734,-5.73608 -1.60197,-6.97632 -2.89388,-1.51584 -4.34082,-4.90926 -4.34082,-10.18026 v -13.5909 h 4.34082 c 1.34358,0 2.48047,-0.43063 3.41064,-1.29191 0.93018,-0.86127 1.39527,-2.0326 1.39527,-3.51399 v -0.10336 c 0,-1.27468 -0.48232,-2.41157 -1.44694,-3.41064 -0.96463,-0.99908 -2.08429,-1.49862 -3.35897,-1.49862 h -4.34082 v -5.27099 c 0,-1.6192 -0.60289,-3.18672 -1.80868,-4.70256 -1.20578,-1.51584 -2.39434,-2.27377 -3.56568,-2.27377 z m -45.01019,10.38697 c -6.27007,0 -11.60998,2.32544 -16.0197,6.97632 -4.40972,4.65088 -6.61458,10.28361 -6.61458,16.89819 0,6.58013 2.20486,12.19564 6.61458,16.84652 4.40972,4.65088 9.74963,6.97631 16.0197,6.97631 1.757,1e-5 4.34082,-1.10242 7.75147,-3.30729 0.82682,-0.55121 1.70533,-0.75792 2.6355,-0.62011 0.93018,0.1378 1.98093,0.82682 3.15227,2.06706 1.17133,1.24023 2.20486,1.86034 3.10058,1.86034 h 6.20118 c 0.82682,0 1.53306,-0.2756 2.11874,-0.82682 0.62012,-0.55121 0.93016,-1.27468 0.93016,-2.17041 v -37.72379 c 0,-1.51584 -0.53398,-2.84221 -1.60196,-3.97909 -1.06798,-0.99908 -2.3599,-1.49861 -3.87574,-1.49861 h -3.97908 c -1.51585,0 -2.77331,0.49953 -3.77238,1.49861 -1.13688,1.13688 -1.70533,2.46325 -1.70533,3.97909 -2.0326,-4.65088 -5.68441,-6.97632 -10.95541,-6.97632 z m -47.54338,0.12299 c -1.12016,-0.004 -2.29103,0.0579 -3.51296,0.18707 -2.4291,0.2672 -4.96181,1.29156 -7.59644,3.06596 l 20.60186,10.28361 -5.4498,2.72645 c 0.3688,1.3764 0.55759,2.97317 0.55759,4.80126 v 19.68872 c 0,2.0326 0.68902,3.73793 2.06705,5.11596 1.41249,1.37804 3.11782,2.06706 5.11597,2.06706 h 0.15503 c 2.03261,0 3.73793,-0.68902 5.11597,-2.06706 1.44694,-1.41249 2.17042,-3.11781 2.17042,-5.11596 l -0.10336,-16.79484 c 0,-7.37251 -1.80868,-13.3842 -5.42603,-18.03508 -3.08121,-3.92418 -7.64642,-5.89862 -13.6953,-5.92315 z m 49.16654,8.29303 c 1.34237,-0.0104 2.66168,0.23332 3.9579,0.73071 2.96278,1.10243 4.75424,2.6355 5.37435,4.5992 v 17.46663 c 0,3.82406 -1.63641,6.30453 -4.90927,7.44141 -1.61919,0.48231 -3.22116,0.63734 -4.8059,0.46509 -2.68718,0.0689 -4.97817,-1.15411 -6.87297,-3.66903 -1.89481,-2.51492 -2.84221,-5.56383 -2.84221,-9.14673 v -3.41064 c 0,-7.3036 1.60198,-11.6961 4.80591,-13.17749 1.80222,-0.85266 3.56628,-1.28582 5.29219,-1.29915 z m -63.78994,17.30747 -14.72778,7.36751 v 7.6817 c 0,2.10151 0.68902,3.84129 2.06706,5.21932 1.41249,1.37804 3.15226,2.06706 5.21932,2.06706 h 0.0517 c 2.0326,0 3.77238,-0.68902 5.21932,-2.06706 1.44694,-1.41249 2.1704,-3.15226 2.1704,-5.21932 z m -22.472517,11.24221 -21.316007,10.66292 c 1.38834,0.17845 2.82301,0.30624 4.307751,0.37879 0.620116,0.10335 1.136876,0.15503 1.550286,0.15503 h 1.49862 c 0.37896,0.0344 0.8785,-0.0172 1.498621,-0.15503 3.341736,-0.13781 6.459543,-0.58567 9.353423,-1.34359 2.928326,-0.72347 4.409716,-2.60105 4.444166,-5.63273 0.0194,-1.68894 -0.42645,-3.04375 -1.33686,-4.06539 z"
       id="text817-3-0"
       inkscape:connector-curvature="0"
       inkscape:export-xdpi="96"
       inkscape:export-ydpi="96" />
  </g>
</svg>
